# xmcd
#
# Track frame offsets:
# 150
# 13636
# 28261
# 40663
# 53588
# 67468
# 79641
# 92228
# 103421
# 117045
# 130331
# 141176
# 155066
# 166411
# 180098
# 192536
# 207288
# 220978
# 235051
# 248573
#
# Disc length: 3492 seconds
#
# Revision: 0
# Processed by: cddbd v1.4PL0 Copyright (c) Steve Scherf et al.
# Submitted via: Audion 2.6.0 (http://www.panic.com/audion/)
#
DISCID=1c0da214
DTITLE=Billie Holliday - The Incomparable. Vol 2
DYEAR=1900
DGENRE=
TTITLE0=That's Life I Guess
TTITLE1=I Can't Give You Anything But Love
TTITLE2=I've Got My Love To Keep Me Warm
TTITLE3=If My Heart Could Only Keep Me Warm
TTITLE4=This Year's Kisses
TTITLE5=Why Was I Born
TTITLE6=I Must Have That Man
TTITLE7=Sentimental And Melancholy
TTITLE8=(This Is) My Last Affair
TTITLE9=Carelessly
TTITLE10=How Could You?
TTITLE11=Moanin' Low
TTITLE12=Let's Call The Whole Thing Off
TTITLE13=They Can't Take That Away From Me
TTITLE14=I Don't Know If I'm Comin' Or Goin'
TTITLE15=Yours And Mine
TTITLE16=I'll Get By (As long As I've Got You)
TTITLE17=Mean To Me
TTITLE18=Foolin' Myself
TTITLE19=I'll Never Be The Same
EXTD=
EXTT0=
EXTT1=
EXTT2=
EXTT3=
EXTT4=
EXTT5=
EXTT6=
EXTT7=
EXTT8=
EXTT9=
EXTT10=
EXTT11=
EXTT12=
EXTT13=
EXTT14=
EXTT15=
EXTT16=
EXTT17=
EXTT18=
EXTT19=
PLAYORDER=
